<svg width="61" height="250" viewBox="0 0 61 250" fill="none" xmlns="http://www.w3.org/2000/svg">
<path d="M27.4596 218.684C27.5706 216.907 27.7928 215.129 27.7373 213.352C27.404 198.91 27.0707 184.524 26.6819 170.083C26.0709 148.254 25.4599 126.48 24.849 104.651C24.0713 76.5453 23.2382 48.4952 22.5161 20.3896C22.405 15.6128 22.4605 10.7804 22.6272 6.00354C22.6827 4.61492 23.1271 3.11521 23.8491 1.89323C24.2935 1.06006 25.5155 0.337978 26.4597 0.282434C27.404 0.226889 28.9037 0.893425 29.1814 1.61551C30.1257 3.94838 31.07 6.44789 31.181 8.94741C32.1808 29.2768 33.0696 49.5506 33.9027 69.8799C35.1247 101.263 36.2356 132.701 37.4021 164.084C37.7909 174.415 38.0686 184.802 38.4019 195.133C38.5129 197.577 38.7351 200.021 39.0128 204.02C41.0125 201.965 42.0678 201.077 42.8454 200.077C45.2894 196.8 47.4556 193.356 50.0107 190.245C52.3991 187.413 55.4541 186.913 57.898 188.412C60.5642 190.023 60.6753 192.578 60.1754 195.244C59.9532 196.3 59.5088 197.355 59.12 198.41C54.3432 211.963 49.5108 225.572 44.6784 239.125C44.4562 239.847 44.123 240.458 43.7897 241.18C39.1239 251.567 35.2914 252.233 28.2927 243.568C23.9047 238.125 19.8499 232.348 15.7952 226.627C11.296 220.295 6.85247 213.907 2.51999 207.52C-0.423882 203.187 -0.590515 199.688 1.96454 197.577C4.85286 195.189 9.07426 196.022 12.518 200.188C15.0731 203.298 17.2949 206.798 19.5722 210.13C21.6274 213.13 23.5714 216.185 25.571 219.184C26.1265 218.962 26.793 218.851 27.4596 218.684Z" fill="black"/>
</svg>
