<svg width="99" height="100" viewBox="0 0 99 100" fill="none" xmlns="http://www.w3.org/2000/svg">
<path d="M19.476 29.3665C20.2287 29.1551 21.0067 29.0479 21.7885 29.0479H33.8518L33.3222 30.8336L31.998 34.405H31.0446L22.8284 34.6734C22.2341 34.6928 21.6436 34.7753 21.0667 34.9193L20.8028 34.9852C19.9753 35.1919 19.1931 35.5492 18.4952 36.0394V36.0394C17.7927 36.5328 17.1879 37.1523 16.7114 37.8663L16.4732 38.2231C16.0552 38.8495 15.7226 39.5289 15.4842 40.2432V40.2432C15.1959 41.1073 15.0489 42.0123 15.0489 42.9232V43.3382C15.0489 44.3199 15.2171 45.2944 15.5463 46.2192L15.5983 46.3653C15.9351 47.3114 16.4514 48.1836 17.119 48.9338L17.2578 49.0898C17.8966 49.8077 18.6799 50.3825 19.5564 50.7765V50.7765C20.4259 51.1673 21.3677 51.3715 22.321 51.3759L84.1241 51.6594C85.2101 51.6644 86.2919 51.7953 87.3477 52.0496V52.0496C88.7517 52.3877 90.1045 52.946 91.34 53.6936V53.6936C92.3765 54.3208 93.3362 55.0831 94.18 55.9524L94.46 56.2408C95.5389 57.3522 96.4496 58.6154 97.1632 59.9902V59.9902C97.6801 60.9861 98.0902 62.034 98.3866 63.1164L98.4083 63.1956C98.8011 64.6303 99.0001 66.1112 99.0001 67.5987V69.827C99.0001 71.0089 98.8458 72.1856 98.541 73.3275V73.3275C98.3179 74.163 98.0156 74.9752 97.638 75.7532L97.4737 76.0916C96.9041 77.2651 96.2051 78.3712 95.3898 79.3894L94.2332 80.8336L92.1145 82.9169L91.5849 82.1431L89.4662 78.4526L90.3137 77.6193V77.6193C91.5107 75.9971 92.5279 74.2497 93.3474 72.4077L93.7035 71.6074V71.6074C93.8792 71.0152 93.9684 70.4008 93.9684 69.7832V67.945C93.9684 67.0175 93.8472 66.0941 93.608 65.198V65.198C93.3204 64.1205 92.8653 63.0948 92.2593 62.1585L92.0144 61.7799C91.38 60.7996 90.5769 59.9395 89.6424 59.2393V59.2393C88.9977 58.7563 88.2964 58.354 87.5541 58.0411L87.3609 57.9597C86.8239 57.7334 86.2643 57.5652 85.6915 57.4579V57.4579C85.2076 57.3673 84.7164 57.3205 84.2241 57.3183L21.2707 57.0307C20.307 57.0263 19.3503 56.8671 18.4372 56.5592V56.5592C17.5954 56.2754 16.8002 55.8685 16.0777 55.3518L15.6927 55.0764C14.7388 54.3943 13.8885 53.5779 13.1681 52.6527L13.0438 52.493C12.6156 51.9431 12.2304 51.361 11.8917 50.7519L11.8548 50.6856C11.3374 49.7553 10.9231 48.7691 10.6204 47.7486V47.7486C10.2208 46.4013 10.0171 45.0008 10.0171 43.5955V43.1405C10.0171 41.6884 10.2114 40.2429 10.5949 38.8424L10.6443 38.662C10.9315 37.613 11.3349 36.5993 11.8472 35.6399L12.0418 35.2753C12.4561 34.4994 12.9608 33.7754 13.5455 33.1183V33.1183C14.3655 32.1968 15.3329 31.418 16.4083 30.8137L17.6003 30.144C18.1924 29.8112 18.8221 29.5503 19.476 29.3665V29.3665Z" fill="black"/>
<path d="M51.3834 0L51.966 1.19048L54.2965 5.95238L57.7393 13.9881L61.7118 23.8095L66.7436 35.7143L70.1864 44.0476L71.2457 46.7262H65.1546L61.447 38.0952L59.0635 32.1429L56.9448 26.7857L55.3559 23.2143L52.7076 16.6667L51.5423 13.5714L51.1186 14.7619L50.483 16.6667L46.8813 25.2976L43.4385 33.631L40.5254 40.7738L38.1419 46.4286L37.8771 46.7262H32.0508L32.5804 45.2381L35.2287 38.9881L38.6715 30.6548L43.1737 19.9405L47.1461 10.119L51.3834 0Z" fill="black"/>
<path d="M71.8813 62.2024H77.7076L79.5614 66.3691L83.0042 74.7024L87.2415 84.8214L90.6843 93.1548L93.3326 99.4048L93.0678 100H87.7712L86.447 97.6191L83.0042 89.2857L79.2966 80.6548L75.3241 70.8333L73.2055 65.4762L71.8813 62.7976V62.2024Z" fill="black"/>
<path d="M25.8008 62.2024H31.3622V63.0952L28.1843 70.5357L25.0063 78.2738L20.769 88.3929L16.7965 97.9167L16.0021 99.7024L15.7372 100H10.1758L10.4406 98.5119L12.5593 93.75L16.0021 85.4167L20.769 73.8095L24.2118 65.7738L25.8008 62.2024Z" fill="black"/>
<path d="M69.2329 29.1665H85.9172L88.3007 33.6308L88.8304 34.8213H86.7117L71.3516 34.5236L69.2329 29.4641V29.1665Z" fill="black"/>
<path d="M3.17797 77H15.3602L14.6186 78.6071L13.2415 82.3571L5.29661 82.4167L0 82.6548L0.635593 81.2262L2.64831 77H3.17797Z" fill="black"/>
</svg>
